<?xml version="1.0" encoding="utf-8"?>
<!-- Generator: Adobe Illustrator 24.0.1, SVG Export Plug-In . SVG Version: 6.00 Build 0)  -->
<svg version="1.1" id="Layer_1" xmlns="http://www.w3.org/2000/svg" xmlns:xlink="http://www.w3.org/1999/xlink" x="0px" y="0px"
	 width="15.7px" height="23.1px" viewBox="353.7 1827.4 15.7 23.1" style="enable-background:new 353.7 1827.4 15.7 23.1;"
	 xml:space="preserve">
<style type="text/css">
	.st0{fill:none;stroke:#B18A48;stroke-width:1.1;stroke-miterlimit:10;}
</style>
<path class="st0" d="M361.5,1827.9c-4,0-7.3,3.3-7.3,7.3c0,1.2,0.3,2.4,0.9,3.5l6,10.9c0.1,0.1,0.2,0.2,0.4,0.2
	c0.2,0,0.3-0.1,0.4-0.2l6-10.9c0.6-1.1,0.9-2.3,0.9-3.5C368.9,1831.2,365.6,1827.9,361.5,1827.9z M361.5,1838
	c-1.6,0-2.9-1.3-2.9-2.9s1.3-2.9,2.9-2.9c1.6,0,2.9,1.3,2.9,2.9S363.1,1838,361.5,1838z"/>
</svg>
