<svg id="Layer_1" data-name="Layer 1" xmlns="http://www.w3.org/2000/svg" width="1622" height="475" viewBox="0 0 1622 475">
  <defs>
    <style>
      .cls-1 {
        fill: #1d1d1b;
      }

      .cls-2 {
        opacity: 0.5;
      }

      .cls-3 {
        fill: #3c3c3b;
      }
    </style>
  </defs>
  <title>footer-bg</title>
  <g id="Layer_2" data-name="Layer 2">
    <g id="Layer_1-2" data-name="Layer 1-2">
      <rect class="cls-1" x="0.27" y="-0.96" width="1621.73" height="476.16"/>
      <g class="cls-2">
        <path class="cls-3" d="M405.26,437v-1.54l-24.84,19.49V416.72l24.84-19.49v-81l-24.36-19.08L405.25,278v-1.54l-24.35-19.11,24.35-19.11v-1.54l-24.84,19.49V218l24.84-19.49V197l-24.84,19.49V178.26l24.84-19.49v-81L380.91,58.66l24.35-19.11h0v-1.5h0L380.91,18.95,405.26-.19V-1h-1L380.42,17.76V-1h-1V17.76L355.58-1h-2l.49.38v39L329.72,57.54V-1h-1V18.53L303.94,38.05,279.6,18.95,304.92-1h-2L279.09,17.76V-1h-1V17.76L254.27-1h-2l.49.38v39L228.41,57.54V-1h-1V18.53L202.63,38.05,178.28,18.95,203.61-1h-2L177.79,17.76V-1h-1V17.76L152.95-1h-2l.49.38v39L127.09,57.54V-1h-1V18.53L101.31,38.05,77,18.92,102.29-1h-2L76.47,17.76V-1h-1V17.76L51.64-1h-2l.49.38v39L25.82,57.51V-1h-1V18.53L0,38.05v1.5L24.84,20V58.26L12,68.33,0,77.76v81L16.8,172l7.55,5.92L0,197v1.54l24.35,19.11L0,236.73v1.53l24.84-19.49V257L0,276.48V278l24.84-19.49v38.21L0,316.22v81L13.68,408l10.66,8.36L0,435.45V437l24.35,19.11L0,475.19V476H1l23.86-18.72V476h1V457.24L49.72,476h2l-.49-.38v-39l24.35-19.11v58.46h1V456.47L101.41,437l24.35,19.11L100.43,476h2l23.86-18.72V476h1V457.24L151.15,476h2l-.49-.38v-39L177,417.46v58.46h1V456.47L202.84,437l24.35,19.11L201.86,476h2l23.86-18.72V476h1V457.24L252.58,476h2l-.49-.38v-39l24-19.07V476h1V456.47L303.92,437l24.35,19.11L302.94,476h2l23.86-18.72V476h1V457.24L353.66,476h2l-.49-.38v-39l24.35-19.11v58.46h1V456.47Zm-.49-40.89-24.36,19.08V338l24.36,19.14Zm-76-59.23v38.59L304.4,356.35v-39l24.35-19.11v38.63Zm25.82-19.11,24.35,19.11-49.19,38.59V337.25Zm-127.1-99V257l-24.84,19.49-24.35-19.11Zm-49.68,37.44V218l24.84-19.49L227,217.63Zm50.66-37.44,24.35,19.11v39L228.45,296V218.78Zm0-1.54h0l-24.84-19.49L228,178.65,252.8,198.1v38.21ZM202.63,197l-24.84,19.49V178.26l24.84-19.49L219.43,172l7.55,5.92Zm-25.82,20.39v38.85l-24.35-19.11v-39L176.81,179Zm0,40.38h0l24.84,19.49L177.3,296.34l-24.84-19.49V238.65ZM202.63,278l24.84-19.49v38.21l-24.84,19.49-24.35-19.09Zm50.66,0,24.35,19.13-24.35,19.11-24.84,19.49V297.5Zm.49-1.15V238.65l24.31,19.12h0l24.84,19.49-24.35,19.11Zm25.82-19.49,49.19-38.59V257l-24.84,19.49Zm-.51-1.15V218l24.84-19.49,24.35,19.11Zm-1,0-24.31-19.11v-39L278.09,179ZM253.25,197l-20.08-15.75-4.27-3.35,24.35-19.11,24.84-19.49v38.2Zm25.84-58.85V99.55l24.35,19.11v39l-24.35,19.07Zm-1-.38-24.84,19.49L228.9,138.14l49.19-38.59Zm-50.66.77h0L252.27,158,228,177.1l-24.84-19.49V119.4ZM202.1,157.64l-24.35,19.11V99.55l24.35,19.11Zm-25.33-19.88-24.84,19.49-24.35-19.11,49.19-38.59Zm-50.66.77h0L151,158,126.64,177.1,101.8,157.61V119.4Zm25.82,20.26,24.84-19.49v38.2L151.94,197l-20.08-15.75-4.27-3.35Zm-.45,39.31v38.21l-24.35-19.11h0L102.3,197.72l24.35-19.11Zm-25.82,19.49-49.2,38.63V218l24.84-19.49Zm.49,1.15V257l-24.84,19.49L77,257.33Zm1,0,24.35,19.11v39L127.16,296V218.74ZM152,278l24.33,19.17L152,316.24l-24.84,19.49V297.5Zm-25.82,58.46v39l-24.35-19.11v-39l24.35-19.11Zm1,.77L152,317.71l24.35,19.11-49.19,38.59Zm50.66-.77h0L152.95,317l24.35-19.11,24.84,19.49v38.21Zm25.33-19.11,24.35-19.11V375.4l-24.35-19.11Zm25.33,19.87,24.84-19.49,24.35,19.11L228.49,375.4Zm50.66-.77h0l-24.84-19.49,24.35-19.11,24.84,19.49v38.21ZM304,316.16l-24.39-19L303.94,278l24.84-19.49v38.21Zm25.82-58.85V218.78l24.31,19.11v39L329.76,296Zm0-40.12h0L305,197.7l24.35-19.11,24.8,19.51v38.21ZM304,196.93l-24.9,19.55V178.27l24.84-19.49L320.72,172l7.55,5.92Zm.49-39.36V119.36l24.35,19.11h0L353.66,158,329.27,177.1Zm25.82-19.49,49.19-38.59V137.7l-24.84,19.49Zm-.49-1.15V98.78L354.64,79.3,379,98.4Zm-1-38.59v38.59l-24.35-19.11v-39l5.33-4.19,19-14.91V98.34ZM303.45,78.92v38.16L279.09,98h0L254.27,78.53l24.35-19.11ZM277.64,98.4,228.45,137V98.78L253.29,79.3Zm-50.17,0V137l-24.35-19.11v-39l5.33-4.19,19-14.91V98.4ZM202.14,78.92v38.16L177.79,98h0L152.95,78.53l24.35-19.11ZM176.32,98.4,127.14,137V98.78L152,79.3Zm-50.17,0V137l-24.35-19.11v-39l5.33-4.19,19-14.91V98.4ZM100.82,78.92v38.16L76.47,98h0L51.64,78.53,76,59.43ZM75,98.4,25.82,137V98.78L50.66,79.3Zm.49,1.15v38.21L50.66,157.25,26.31,138.14Zm1,0,24.35,19.11v39L76.51,176.78Zm24.84,59.23L118.15,172l7.55,5.92L101.35,197,76.47,216.48V178.27Zm-25.86,58.6v38.84L51.15,237.11v-39L75.49,179Zm0,40.38h0l24.84,19.49L76,296.35l-24.88-19.5V238.65ZM101.31,278l24.84-19.49v38.21l-24.84,19.49L77,297.13Zm-.49,39.36v38.21L76.47,336.49h0L51.64,317,76,297.88ZM75,336.86,25.82,375.45v-38.2l24.84-19.49Zm.49,1.15v38.21L50.66,395.7l-24.35-19.1Zm1,0,24.31,19.15v39l-24.35,19V338Zm25.33,19.87L126.19,377h0L151,396.46l-24.35,19.11-24.84-19.49Zm25.82,18.72L176.84,338v38.21L152,395.69ZM177.82,338l24.32,19.16v39l-24.35,19V338Zm25.33,19.87L227.5,377h0l24.84,19.49L228,415.56l-24.84-19.49ZM229,376.58,278.09,338v38.21l-24.84,19.49ZM279.09,338l24.37,19.14v39l-24.37,19Zm25.33,19.87L328.76,377h0l24.84,19.49-24.35,19.11-24.84-19.49Zm25.82,18.72L379.42,338v38.21L354.58,395.7Zm74.51-59.23v38.21L380.4,336.48h0L355.56,317l24.35-19.11ZM379,297.13l-24.35,19.11-24.84,19.49V297.5L354.61,278Zm.49-39.36h0l24.84,19.49-24.35,19.11-24.83-19.51V238.65Zm0-40.38v38.83l-24.34-19.11v-39L379.46,179ZM354.61,197l-20.08-15.75-4.27-3.35,24.35-19.11,24.84-19.49v38.2Zm50.17-39.36-24.35,19.11V99.55l24.35,19.11Zm0-78.71v38.15L380.42,98h0L355.58,78.53l24.35-19.11ZM355.11,38.4V.19L379.46,19.3h0l24.84,19.49L379.95,57.89Zm-.49,1.15L379,58.66,354.6,77.77,329.76,97.25V59.06ZM328.78,20V58.26L316,68.33l-12,9.43L279.6,58.66l24.35-19.11Zm-75,18.34V.19L278.09,19.3h0l24.84,19.49L278.58,57.89Zm-.49,1.15,24.35,19.11L253.29,77.77,228.45,97.25V59.06ZM227.47,20V58.26L214.65,68.33l-12,9.43L178.27,58.66l24.35-19.11Zm-75,18.34V.19L176.79,19.3h0l24.84,19.49L177.28,57.89ZM152,39.53,176.3,58.64,152,77.77,127.13,97.25V59.06ZM126.15,20V58.26L113.33,68.33l-12,9.43L77,58.66l24.35-19.11Zm-75,18.34V.19L75.47,19.3h0l24.86,19.49L76,57.89Zm-.49,1.15L75,58.66,50.66,77.77,25.82,97.25V59.06ZM.49,78.92l5.33-4.19,19-14.91V137L.49,117.89Zm0,78.71V119.42l24.35,19.11h0L49.68,158,25.33,177.1Zm25.82,20.26,24.35-19.11,24.84-19.49v38.2L50.66,197,30.58,181.24Zm-.49,39.36h0L1,197.76l24.35-19.11L50.17,198.1v38.21Zm0,40.12V218.78l24.35,19.11v39L25.82,296ZM50.66,278,75,297.13,50.68,316.24,25.82,335.71V297.5ZM.49,317.37l24.35-19.11v77.18L.49,356.35Zm0,78.71V357.87L24.84,377h0l24.84,19.49L25.33,415.57ZM50.17,474.8,25.82,455.69,1,436.18l24.35-19.11,24.84,19.49Zm.49-39.36L26.31,416.35l24.35-19.11,24.84-19.49V416Zm25.82,19.49V416.71l24.84-19.49L115,408l10.66,8.36-24.35,19.11Zm75,19.88-24.35-19.11-24.86-19.52,24.35-19.11,24.84,19.49Zm.49-39.36-24.35-19.11L152,397.22l24.84-19.49v38.2Zm25.82,19.49V416.71l24.84-19.49L216.33,408,227,416.32l-24.35,19.11Zm75,19.88-24.35-19.11-24.87-19.52L228,417.07l24.84,19.49Zm.49-39.36L229,416.33l24.35-19.11,24.77-19.47V416Zm25.77,19.51V416.73l24.84-19.49L317.61,408l10.66,8.36-24.35,19.11Zm75,19.88-24.35-19.11-24.84-19.54,24.35-19.11,24.84,19.54Zm.49-39.36-24.35-19.11,24.35-19.11,24.84-19.49V416Z"/>
        <path class="cls-3" d="M810.52,437v-1.54l-24.84,19.49V416.72l24.84-19.49v-81l-24.35-19.08L810.52,278v-1.54l-24.35-19.11,24.35-19.11v-1.54l-24.84,19.49V218l24.84-19.49V197l-24.84,19.49V178.26l24.84-19.49v-81L786.17,58.66l24.35-19.11h0v-1.5h0L786.17,18.95,810.52-.19V-1h-1L785.68,17.76V-1h-1V17.76L760.84-1h-2l.49.38v39L735,57.51V-1h-1V18.53L709.22,38.05,684.87,18.95,710.22-1h-2L684.37,17.76V-1h-1V17.76L659.52-1h-2l.49.38v39L633.67,57.54V-1h-1V18.53L607.89,38.05,583.54,18.95,608.87-1h-2L583,17.76V-1h-1V17.76L558.17-1h-2l.49.38v39L532.31,57.54V-1h-1V18.53L506.58,38.05,482.23,18.95,507.56-1h-2L481.74,17.76V-1h-1V17.76L456.89-1h-2l.49.38v39L431,57.54V-1h-1V18.53L405.26,38.05v1.5L430.13,20V58.26L417.28,68.33l-12,9.43v81L422.07,172l7.55,5.92L405.27,197v1.54l24.35,19.11-24.35,19.11v1.53l24.86-19.51V257l-24.84,19.49V278l24.84-19.49v38.21l-24.84,19.49v81L419,408l10.66,8.36-24.35,19.11V437l24.35,19.11-24.38,19.1V476h1l23.87-18.72V476h1V457.24L455,476h2l-.49-.38v-39l24.35-19.11v58.46h1V456.47L506.69,437,531,456.09,505.71,476h2l23.86-18.72V476h1V457.24L556.42,476h2l-.49-.38v-39l24.35-19.11v58.46h1V456.47L608.12,437l24.08,19.11L606.87,476h2l23.86-18.72V476h1V457.24L657.58,476h2l-.49-.38v-39l24.35-19.11v58.46h1V456.47L709.22,437l24.35,19.11L708.22,476h2l23.86-18.72V476h1V457.24L758.93,476h2l-.49-.38v-39l24.35-19.11v58.46h1V456.47ZM810,396.09l-24.35,19.08V338L810,357.15Zm-76-59.23v38.59l-24.35-19.11v-39L734,298.23v38.63Zm25.82-19.11,24.42,19.1L735,375.45v-38.2Zm-127.14-99V257l-24.8,19.48-24.35-19.11ZM583,256.22V218l24.84-19.49,24.31,19.11Zm50.66-37.44,24.35,19.11v39L633.71,296V218.78Zm0-1.54h0l-24.84-19.49,24.33-19.1,24.87,19.45v38.21ZM607.89,197,583,216.48V178.27l24.84-19.49L624.68,172l7.55,5.92Zm-25.82,20.39v38.84l-24.35-19.11v-39L582.07,179Zm0,40.38h0l24.84,19.49-24.35,19.11-24.84-19.49V238.66ZM607.89,278l24.84-19.49v38.21l-24.84,19.48-24.35-19.09Zm50.66,0,24.36,19.12-24.35,19.11-24.84,19.49V297.5Zm.49-1.15V238.66l24.35,19.11h0l24.84,19.49-24.35,19.11Zm25.82-19.49L734,218.79V257l-24.82,19.48Zm-.49-1.15V218l24.86-19.49,24.35,19.11Zm-1,0L659,237.11v-39L683.39,179v77.22ZM658.52,197l-20.08-15.75-4.25-3.36,24.35-19.11,24.84-19.49v38.2Zm25.82-58.85V99.55l24.35,19.11v39l-24.35,19.11Zm-1-.38L658.5,157.26,634.2,138.14l49.19-38.59Zm-50.66.77h0L657.52,158,633.2,177.1l-24.84-19.49V119.4Zm-25.33,19.11L583,176.76V99.55l24.35,19.11ZM582,137.77l-24.84,19.49-24.35-19.11L582,99.56Zm-50.66.77h0L556.21,158,531.9,177.1l-24.84-19.49V119.4Zm25.82,20.26L582,139.31v38.2L557.19,197l-20-15.76-4.27-3.35Zm-.45,39.3v38.21l-24.35-19.11h0l-24.84-19.45,24.35-19.11Zm-25.82,19.49-49.19,38.63V218l24.84-19.49Zm.49,1.15V257l-24.84,19.49-24.35-19.11Zm1,0,24.35,19.11v39L532.41,296V218.74ZM557.25,278l24.33,19.17-24.35,19.11-24.84,19.49V297.5Zm-25.82,58.46v39l-24.35-19.11v-39l24.35-19.11Zm1,.77,24.84-19.49,24.35,19.11-49.19,38.59Zm50.66-.77h0L558.17,317l24.35-19.11,24.84,19.49v38.21Zm25.33-19.11,24.35-19.11V375.4l-24.35-19.11Zm25.33,19.87,24.84-19.49,24.35,19.11L633.75,375.4Zm50.66-.77h0l-24.84-19.49,24.35-19.11,24.84,19.49v38.21Zm24.82-20.2-24.36-19.09L709.22,278l24.84-19.49v38.21ZM735,257.37V218.78l24.35,19.11v39L735,296Zm0-40.12h0l-24.82-19.49,24.35-19.11,24.81,19.45v38.21ZM709.22,197l-24.84,19.49V178.27l24.84-19.49L726,172l7.55,5.92Zm.49-39.36V119.42l24.35,19.11h0L758.89,158,734.54,177.1Zm25.82-19.49,49.19-38.59v38.21l-24.84,19.49ZM735,137V98.78L759.87,79.3,784.24,98.4ZM734,98.4V137l-24.35-19.11v-39L715,74.68l19-14.91V98.4ZM708.72,78.92v38.16L684.37,98h0L659.52,78.53l24.35-19.11ZM682.9,98.4,633.72,137V98.78L658.55,79.3Zm-50.17,0V137l-24.35-19.11v-39l5.33-4.19,19-14.91V98.4ZM607.4,78.92v38.16L583,98h0L558.17,78.53l24.35-19.11ZM581.58,98.4,532.39,137V98.78L557.23,79.3Zm-50.17,0V137l-24.35-19.11v-39l5.33-4.19,19-14.91V98.4ZM506.09,78.92v38.16L481.74,98h0L456.9,78.53l24.35-19.11ZM480.27,98.4,431.08,137V98.78L455.92,79.3Zm.49,1.15v38.21l-24.84,19.49-24.35-19.11Zm1,0,24.35,19.11v39l-24.35,19.11Zm24.84,59.23L523.39,172l7.55,5.92L506.6,197l-24.84,19.49V178.27Zm-25.82,58.59v38.85l-24.37-19.11v-39L480.76,179Zm0,40.38h0l24.84,19.49-24.35,19.11-24.84-19.49V238.65ZM506.6,278l24.84-19.49v38.21L506.6,316.22l-24.37-19.09Zm-.49,39.36v38.21l-24.35-19.11h0L456.92,317l24.35-19.11Zm-25.82,19.49L431.1,375.45v-38.2l24.84-19.49Zm.49,1.15v38.21L455.94,395.7,431.59,376.6Zm1,0,24.31,19.15v39l-24.35,19V338Zm25.33,19.87L531.45,377h0l24.84,19.49-24.35,19.11-24.84-19.49Zm25.82,18.72L582.11,338v38.21l-24.84,19.49ZM583.09,338l24.31,19.16v39l-24.35,19V338Zm25.33,19.87L632.77,377h0l24.84,19.49L633.2,415.58l-24.84-19.49Zm25.78,18.75L683.38,338v38.21l-24.84,19.49ZM684.36,338l24.36,19.14v39l-24.35,19V338Zm25.33,19.87L734,377h0l24.84,19.49-24.35,19.11-24.84-19.49Zm25.82,18.72L784.69,338v38.21L759.85,395.7ZM810,317.37v38.21l-24.35-19.11h0L760.83,317l24.41-19.11Zm-25.78-20.24-24.35,19.11L735,335.71V297.5L759.86,278Zm.49-39.36h0l24.84,19.49-24.33,19.1L760.4,276.87V238.66Zm0-40.38v38.83l-24.38-19.11v-39L784.7,179ZM759.89,197l-20.08-15.75-4.27-3.35,24.35-19.11,24.84-19.49v38.2Zm50.17-39.36-24.35,19.11V99.55l24.35,19.11Zm0-78.71v38.15L785.71,98h0L760.84,78.53l24.4-19.1ZM760.38,38.41V.19L784.73,19.3h0l24.84,19.49L785.24,57.89Zm-.49,1.15,24.35,19.1L759.86,77.77,735,97.25V59.06ZM734,20V58.26L721.22,68.33l-12,9.43L684.86,58.66l24.36-19.11ZM659,38.38V.19L683.37,19.3h0l24.85,19.49L683.87,57.89Zm-.49,1.15,24.35,19.11L658.55,77.77,633.71,97.25V59.06ZM632.73,20V58.26L619.91,68.33l-12,9.43L583.54,58.66l24.35-19.11Zm-75,18.34V.19L582,19.3h0l24.84,19.49L582.54,57.89Zm-.49,1.15,24.37,19.13L557.23,77.77,532.39,97.25V59.06ZM531.41,20V58.26L518.6,68.33l-12,9.43L482.23,58.66l24.35-19.11Zm-75,18.34V.19L480.74,19.3h0l24.84,19.49L481.25,57.89Zm-.49,1.15,24.35,19.11L455.92,77.77,431.08,97.25V59.06ZM405.75,78.92l5.38-4.19,19-14.91V137l-24.35-19.11Zm0,78.71V119.42l24.39,19.11h0L455,158,430.59,177.1Zm25.82,20.26,24.35-19.11,24.84-19.49v38.2L455.91,197l-20.08-15.75Zm-.49,39.36h0l-24.84-19.49,24.35-19.11,24.85,19.45v38.21Zm0,40.12V218.78l24.35,19.11v39L431.07,296ZM455.91,278l24.36,19.13-24.35,19.11-24.84,19.49V297.5Zm-50.17,39.36,24.39-19.11v77.18l-24.35-19.11Zm0,78.71V357.87L430.13,377h0L455,396.47l-24.35,19.11Zm49.68,78.71-24.35-19.11-24.84-19.52,24.35-19.11,24.84,19.49Zm.49-39.36-24.35-19.11,24.35-19.11,24.84-19.49v38.2Zm25.82,19.49V416.71l24.84-19.49L520.25,408l10.66,8.36-24.35,19.11Zm75,19.88L532.4,455.69l-24.85-19.52,24.35-19.11,24.84,19.49Zm.49-39.36-24.35-19.11,24.35-19.11,24.84-19.49v38.2Zm25.82,19.49V416.71l24.84-19.49L621.58,408l10.61,8.39-24.35,19.11Zm75,19.88-24.35-19.11-24.87-19.52,24.33-19.07L658,436.6Zm.49-39.36L634.2,416.35l24.35-19.11,24.84-19.49V416Zm25.82,19.49V416.71l24.83-19.47L722.9,408l10.66,8.36-24.35,19.11Zm75,19.88-24.35-19.11-24.85-19.52,24.35-19.11,24.84,19.49Zm.49-39.36-24.35-19.11,24.35-19.11,24.84-19.49v38.2Z"/>
        <path class="cls-3" d="M1215.52,437v-1.54l-24.84,19.49V416.72l24.84-19.49v-81l-24.35-19.08L1215.52,278v-1.54l-24.35-19.11,24.35-19.11v-1.54l-24.84,19.49V218l24.84-19.49V197l-24.84,19.49V178.26l24.84-19.49v-81l-24.35-19.11,24.35-19.11h0V38.05h0l-24.35-19.11L1215.52-.19V-1h-1l-23.86,18.72V-1h-1V17.76L1165.85-1h-2l.49.38v39L1140,57.54V-1h-1V18.53l-24.78,19.53-24.35-19.11L1115.19-1h-2l-23.86,18.72V-1h-1V17.76L1064.54-1h-2l.49.38v39l-24.35,19.11V-1h-1V18.53L1012.9,38.05,988.55,18.95,1013.87-1h-2L988.05,17.76V-1h-1V17.76L963.22-1h-2l.49.38v39L937.36,57.54V-1h-1V18.53L911.58,38.05,887.27,18.92,912.56-1h-2L886.74,17.76V-1h-1V17.76L861.91-1h-2l.49.38v39L836,57.54V-1h-1V18.53l-24.8,19.53v1.5L835.11,20V58.26L822.25,68.33l-12,9.43v81L827,172l7.55,5.92L810.25,197v1.54l24.35,19.11-24.35,19.1v1.53l24.84-19.49V257l-24.84,19.49V278l24.84-19.49v38.21l-24.84,19.49v81L823.93,408l10.66,8.36-24.35,19.11V437l24.35,19.11-24.35,19.1V476h1l23.86-18.72V476h1V457.24L860,476h2l-.49-.38v-39l24.35-19.11v58.46h1V456.47L911.66,437,936,456.09,910.68,476h2l23.86-18.72V476h1V457.24L961.3,476h2l-.49-.38v-39l24.35-19.11v58.46h1V456.47L1013,437l24.35,19.11L1012,476h2l23.86-18.72V476h1V457.24L1062.73,476h2l-.49-.38v-39l24.35-19.11v58.46h1V456.47L1114.42,437l24.35,19.11L1113.44,476h2l23.86-18.72V476h1V457.24L1164.16,476h2l-.49-.38v-39L1190,417.46v58.46h1V456.47Zm-.49-40.89-24.35,19.08V338L1215,357.12Zm-76-59.23v38.59l-24.35-19.11v-39L1139,298.23v38.63Zm25.82-19.11,24.35,19.11L1140,375.46V337.25Zm-127.14-99V257l-24.84,19.49L988.5,257.38Zm-49.64,37.43V218l24.84-19.49,24.35,19.11Zm50.66-37.44,24.35,19.11v39L1038.71,296V218.78Zm0-1.54h0l-24.84-19.49,24.35-19.11,24.85,19.46v38.21ZM1012.89,197l-24.84,19.49V178.26l24.84-19.49,16.8,13.18,7.55,5.92Zm-25.82,20.39v38.85l-24.35-19.11v-39L987.07,179Zm0,40.38h0l24.84,19.49-24.35,19.11-24.84-19.49V238.65ZM1012.89,278l24.84-19.49v38.21l-24.84,19.49-24.35-19.09Zm50.66,0,24.35,19.11-24.35,19.11-24.84,19.49V297.5Zm.49-1.15V238.65l24.35,19.11h0l24.84,19.49-24.35,19.11Zm25.82-19.49L1139,218.78V257l-24.84,19.49Zm-.49-1.15V218l24.84-19.49,24.35,19.11Zm-1,0L1064,237.11v-39L1088.4,179v77.22ZM1063.53,197l-20.08-15.75-4.27-3.35,24.35-19.11,24.84-19.49v38.2Zm25.81-58.85V99.55l24.35,19.11v39l-24.35,19.07Zm-1-.38-24.84,19.49-24.35-19.11,49.19-38.59Zm-50.66.77h0L1062.52,158l-24.29,19.08-24.84-19.49V119.4Zm-25.33,19.11L988,176.75V99.55l24.35,19.11ZM987,137.76l-24.84,19.49-24.35-19.11L987,99.55Zm-50.66.77h0L961.3,158,936.91,177.1l-24.84-19.49V119.4Zm25.82,20.26L987,139.3v38.2L962.19,197l-20.08-15.75-4.27-3.35Zm-.44,39.31v38.21L937.4,217.21h0l-24.84-19.49,24.35-19.11Zm-25.82,19.49-49.19,38.63V218l24.84-19.49Zm.49,1.15V257l-24.84,19.53-24.31-19.11Zm1,0,24.35,19.11v39L937.42,296V218.74ZM962.26,278l24.34,19.17-24.35,19.11-24.84,19.49V297.5Zm-25.82,58.46v39l-24.35-19.11v-39l24.35-19.11Zm1,.77,24.84-19.49,24.35,19.11-49.19,38.59Zm50.66-.77h0l-24.84-19.49,24.35-19.11,24.84,19.49v38.21Zm25.33-19.11,24.35-19.11V375.4l-24.35-19.11Zm25.33,19.87,24.84-19.49,24.35,19.11-49.19,38.59Zm50.66-.77h0l-24.84-19.49,24.35-19.11,24.84,19.49v38.21Zm24.84-20.26-24.38-19L1114.21,278l24.84-19.49v38.21Zm25.82-58.85V218.78l24.35,19.11v39L1140.06,296Zm0-40.12h0l-24.84-19.49,24.35-19.11,24.79,19.51v38.21Zm-25.82-20.26-24.91,19.55V178.27l24.84-19.49L1131,172l7.55,5.92Zm.49-39.36V119.36l24.35,19.11h0L1163.92,158l-24.38,19.15Zm25.82-19.49,49.19-38.59V137.7l-24.84,19.49Zm-.49-1.15V98.78L1164.9,79.3l24.35,19.11Zm-1-38.59v38.59l-24.35-19.11v-39l5.33-4.19,19-14.91V98.34Zm-25.33-19.49v38.22L1089.34,98h0L1064.5,78.53l24.35-19.11Zm-25.82,19.49-49.19,38.59V98.78l24.84-19.49Zm-50.17,0v38.59l-24.35-19.11v-39l5.33-4.19,19-14.91V98.34Zm-25.34-19.43v38.16L988.06,98h0L963.22,78.53l24.35-19.11ZM986.59,98.4,937.41,137V98.78L962.25,79.3Zm-50.17,0V137l-24.35-19.11v-39l5.33-4.19,19-14.91V98.4ZM911.09,78.92v38.16L886.74,98h0L861.91,78.53l24.37-19.1ZM885.27,98.4,836.09,137V98.78L860.93,79.3Zm.49,1.15v38.21l-24.84,19.49-24.35-19.11Zm1,0,24.35,19.11v39l-24.35,19.11Zm24.84,59.23L928.4,172l7.55,5.92L911.6,197l-24.84,19.49V178.27Zm-25.82,58.59v38.85l-24.37-19.11v-39L885.76,179Zm0,40.38h0l24.84,19.49-24.35,19.12-24.84-19.49V238.66ZM911.6,278l24.84-19.49v38.21l-24.86,19.49-24.31-19.09Zm-.49,39.36v38.21l-24.35-19.11h0L861.93,317l24.35-19.11Zm-25.84,19.49-49.19,38.59v-38.2l24.84-19.49Zm.49,1.15v38.21L860.93,395.7,836.58,376.6Zm1,0,24.33,19.15v39l-24.35,19V338Zm25.33,19.87L936.44,377h0l24.86,19.5-24.35,19.11-24.84-19.49Zm25.82,18.72L987.09,338v38.21l-24.84,19.49ZM988.07,338l24.34,19.16v39l-24.36,19V338Zm25.33,19.87L1037.75,377h0l24.84,19.49-24.35,19.11-24.84-19.49Zm25.82,18.72L1088.41,338V376.2l-24.84,19.49ZM1089.34,338l24.35,19.11v39l-24.35,19Zm25.33,19.87L1139,377h0l24.84,19.49-24.35,19.11-24.84-19.49Zm25.82,18.72L1189.67,338v38.21l-24.84,19.49ZM1215,317.37v38.21l-24.35-19.11h0L1165.81,317l24.35-19.11Zm-25.77-20.24-24.35,19.11L1140,335.73V297.5L1164.88,278Zm.49-39.36h0l24.84,19.49-24.35,19.11-24.85-19.51V238.65Zm0-40.38v38.83l-24.36-19.11v-39L1189.71,179ZM1164.88,197l-20.08-15.75-4.27-3.35,24.35-19.11,24.84-19.49v38.2ZM1215,157.64l-24.35,19.11V99.55L1215,118.66Zm0-78.71v38.15L1190.7,98h0l-24.84-19.49,24.35-19.11ZM1165.36,38.4V.19l24.35,19.11h0l24.84,19.49L1190.2,57.89Zm-.49,1.15,24.35,19.11-24.35,19.11L1140,97.25V59.06ZM1139.05,20V58.26l-12.81,10.05-12,9.43-24.35-19.11,24.35-19.11Zm-75,18.34V.19l24.35,19.11h0l24.84,19.49-24.35,19.11Zm-.49,1.15,24.35,19.11-24.35,19.11-24.82,19.51V59.06ZM1037.74,20V58.26l-12.82,10.07-12,9.43L988.54,58.66l24.35-19.11Zm-75,18.34V.19L987.06,19.3h0l24.84,19.49L987.55,57.89Zm-.49,1.15,24.35,19.11L962.24,77.77,937.4,97.25V59.06ZM936.42,20V58.26L923.6,68.33l-12,9.43L887.27,58.66l24.31-19.11Zm-75,18.34V.19L885.74,19.3h0l24.84,19.49L886.27,57.89Zm-.49,1.15,24.37,19.13L860.93,77.77,836.09,97.25V59.06ZM810.76,78.92l5.33-4.19,19-14.91V137l-24.35-19.11Zm0,78.71V119.42l24.35,19.11h0L859.95,158,835.6,177.1Zm25.82,20.26,24.35-19.11,24.84-19.49v38.2L860.93,197l-20.08-15.75Zm-.49,39.36h0l-24.84-19.49,24.35-19.11,24.84,19.45v38.21Zm0,40.12V218.78l24.35,19.11v39L836.09,296ZM860.93,278l24.35,19.13-24.35,19.11-24.84,19.49V297.5Zm-50.17,39.36,24.35-19.11v77.18l-24.35-19.11Zm0,78.71V357.87L835.11,377h0l24.84,19.49L835.6,415.57Zm49.68,78.71-24.35-19.11-24.84-19.52,24.35-19.11,24.84,19.49Zm.49-39.36-24.35-19.11,24.35-19.11,24.84-19.49v38.2Zm25.82,19.49V416.71l24.84-19.49L925.29,408l10.66,8.36L911.6,435.45Zm75,19.88-24.35-19.11-24.86-19.52,24.35-19.11,24.84,19.49Zm.49-39.36-24.35-19.11,24.35-19.11,24.84-19.49v38.2Zm25.82,19.49V416.71l24.84-19.49L1026.6,408l10.66,8.36-24.35,19.11Zm75,19.88-24.35-19.11-24.88-19.52,24.35-19.11,24.84,19.49Zm.49-39.36-24.35-19.11,24.35-19.11,24.84-19.49v38.2Zm25.75,19.51V416.73l24.84-19.49L1127.86,408l10.66,8.36-24.35,19.11Zm75,19.88L1140,455.71l-24.82-19.54,24.35-19.11,24.82,19.54Zm.49-39.36-24.35-19.11,24.35-19.11,24.84-19.49V416Z"/>
        <path class="cls-3" d="M1620.86,437v-1.54L1596,454.93V416.72l24.84-19.49v-81l-24.37-19.08L1620.84,278v-1.54l-24.35-19.12,24.35-19.11v-1.54L1596,256.21V218l24.84-19.49V197L1596,216.47V178.26l24.84-19.49v-81l-24.35-19.09,24.35-19.11h0v-1.5h0l-24.35-19.14L1620.86-.19V-1h-1L1596,17.76V-1h-1V17.76L1571.17-1h-2l.49.38v39l-24.35,19.11V-1h-1V18.53l-24.78,19.53-24.35-19.11L1520.52-1h-2l-23.86,18.72V-1h-1V17.76L1469.86-1h-2l.49.38v39L1444,57.54V-1h-1V18.53l-24.78,19.53-24.35-19.11L1419.21-1h-2l-23.78,18.72V-1h-1V17.76L1368.54-1h-2l.49.38v39l-24.35,19.11V-1h-1V18.53l-24.78,19.53-24.35-19.11L1317.89-1h-2L1292,17.76V-1h-1V17.76L1267.23-1h-2l.49.38v39l-24.34,19.08V-1h-1V18.53l-24.79,19.53v1.5L1240.43,20V58.26l-12.81,10.05-12,9.43v81L1232.38,172l7.55,5.92L1215.58,197v1.54l24.35,19.11-24.35,19.11v1.53l24.84-19.49V257l-24.84,19.49V278l24.84-19.49v38.21l-24.84,19.49v81L1229.27,408l10.66,8.36-24.35,19.11V437l24.35,19.11-24.34,19.09V476h1l23.86-18.72V476h1V457.24L1265.31,476h2l-.49-.38v-39l24.35-19.11v58.46h1V456.47L1317,437l24.35,19.11L1316,476h2l23.86-18.72V476h1V457.24L1366.74,476h2l-.49-.38v-39l24.35-19.11v58.46h1V456.47L1418.44,437l24.35,19.11L1417.46,476h2l23.86-18.72V476h1V457.24L1468.17,476h2l-.49-.38v-39L1494,417.46v58.46h1V456.47L1519.87,437l24.35,19.11L1518.89,476h2l23.86-18.72V476h1V457.24L1569.6,476h2l-.49-.38v-39l24.35-19.11v58.46h1V456.47Zm-.49-40.89L1596,415.17V338l24.35,19.11Zm-76-59.23v38.59L1520,356.35v-39l24.35-19.11v38.63Zm25.82-19.11,24.35,19.11-49.19,38.59V337.25Zm-127.14-99V257l-24.84,19.49-24.35-19.11Zm-49.6,37.43V218l24.84-19.49,24.35,19.11Zm50.66-37.44,24.35,19.11v39L1444.09,296V218.78Zm0-1.54h0l-24.84-19.49,24.35-19.11,24.8,19.46v38.21ZM1418.27,197l-24.84,19.5V178.27l24.84-19.49,16.8,13.18,7.55,5.92Zm-25.84,20.4v38.84l-24.37-19.11v-39L1392.41,179Zm0,40.38h0l24.84,19.49-24.35,19.11-24.84-19.49V238.66ZM1418.25,278l24.84-19.49v38.21l-24.84,19.49-24.37-19.1Zm50.66,0,24.35,19.11-24.35,19.11-24.84,19.49V297.5Zm.49-1.15V238.66l24.35,19.11h0l24.84,19.49-24.35,19.11Zm25.82-19.49,49.19-38.59V257l-24.84,19.49Zm-.49-1.15V218l24.84-19.49,24.35,19.11Zm-1,0-24.35-19.12v-39L1493.72,179v77.22ZM1468.88,197l-20.08-15.75-4.27-3.35,24.35-19.11,24.84-19.49v38.2Zm25.82-58.85V99.55L1519,118.66v39l-24.35,19.11Zm-1-.38-24.84,19.49-24.35-19.11,49.19-38.59Zm-50.66.77h0L1467.88,158l-24.33,19.07-24.84-19.49V119.4Zm-25.33,19.11-24.29,19.09V99.55l24.35,19.11Zm-25.29-19.89-24.84,19.49-24.35-19.11,49.19-38.59Zm-50.66.77h0L1366.61,158l-24.37,19.08-24.84-19.47V119.42Zm25.82,20.26,24.84-19.5v38.2L1367.59,197l-20.08-15.75-4.27-3.35Zm-.49,39.36v38.21l-24.35-19.11h0l-24.84-19.49,24.35-19.11Zm-25.82,19.49-49.19,38.59V218l24.84-19.49Zm.49,1.15V257l-24.84,19.49-24.35-19.11Zm1,0,24.35,19.11v39L1342.77,296V218.78ZM1367.61,278,1392,297.12l-24.35,19.11-24.84,19.49V297.5Zm-25.82,58.46v39l-24.39-19.14v-39l24.35-19.11Zm1,.77,24.84-19.49L1392,336.87l-49.19,38.59Zm50.66-.77h0L1368.61,317,1393,297.88l24.84,19.49v38.21Zm25.33-19.11,24.35-19.11v77.18l-24.35-19.11Zm25.33,19.87,24.84-19.49,24.35,19.11-49.19,38.59Zm50.66-.77h0L1469.92,317l24.35-19.11,24.84,19.49v38.21Zm24.84-20.26-24.41-19.08L1519.54,278l24.84-19.49v38.21Zm25.82-58.85V218.78l24.35,19.11v39L1545.42,296Zm0-40.12h0l-24.84-19.49,24.35-19.11,24.79,19.46v38.21ZM1519.6,197l-24.84,19.49V178.26l24.84-19.49,16.8,13.18,7.55,5.92Zm.49-39.36V119.41l24.35,19.11h0L1569.27,158l-24.41,19.1Zm25.82-19.49,49.19-38.59v38.21l-24.84,19.49Zm-.49-1.15V98.78l24.84-19.49L1594.6,98.4Zm-1-38.59V137l-24.35-19.11v-39l5.33-4.19,19-14.91V98.4Zm-25.33-19.49v38.17L1494.74,98h0L1469.9,78.49l24.35-19.11Zm-25.82,19.49L1444.08,137V98.78l24.84-19.49Zm-50.17,0V137l-24.35-19.11v-39l5.33-4.19,19-14.91V98.4Zm-25.37-19.48v38.16L1393.43,98h0l-24.84-19.49,24.35-19.11ZM1391.92,98.4,1342.73,137V98.78l24.84-19.49Zm-50.17,0V137l-24.35-19.11v-39l5.33-4.19,19-14.91V98.4Zm-25.35-19.49v38.16L1292.06,98h0l-24.84-19.49,24.35-19.11ZM1290.59,98.4,1241.38,137V98.78l24.84-19.49Zm.49,1.15v38.21l-24.84,19.49-24.35-19.11Zm1,0,24.35,19.11v39l-24.35,19.11Zm24.84,59.23,16.8,13.18,7.55,5.92L1316.92,197l-24.84,19.49V178.27Zm-25.82,58.59v38.85l-24.36-19.11v-39L1291.09,179Zm0,40.38h0l24.84,19.49-24.35,19.11-24.84-19.49V238.65ZM1316.92,278l24.84-19.49v38.21l-24.84,19.49-24.36-19.09Zm-.49,39.36v38.21l-24.35-19.11h0L1267.24,317l24.35-19.11Zm-25.82,19.49-49.23,38.59v-38.2l24.84-19.49Zm.49,1.15v38.21l-24.84,19.49-24.35-19.11Zm1,0,24.31,19.15v39l-24.34,19V338Zm25.31,19.88L1341.75,377h0l24.84,19.49-24.35,19.11-24.84-19.49Zm25.82,18.72L1392.43,338v38.21l-24.84,19.49ZM1393.43,338l24.31,19.14v39l-24.31,19Zm25.33,19.87L1443.1,377h0l24.84,19.49-24.35,19.11-24.84-19.49Zm25.82,18.72L1493.76,338v38.21l-24.84,19.49ZM1494.74,338l24.35,19.11v39l-24.39,19V338Zm25.33,19.87L1544.42,377h0l24.84,19.49-24.35,19.11-24.84-19.49Zm25.82,18.72L1595.07,338v38.21l-24.84,19.49Zm74.51-59.23v38.21l-24.35-19.11h0L1571.21,317l24.35-19.11Zm-25.85-20.23-24.35,19.11-24.84,19.49V297.5L1570.2,278Zm.49-39.36h0l24.84,19.49-24.39,19.1-24.84-19.49V238.66Zm0-40.38v38.83l-24.35-19.11v-39L1595,179ZM1570.2,197l-20.08-15.75-4.27-3.35,24.35-19.11L1595,139.3v38.2Zm50.17-39.36L1596,176.75V99.55l24.35,19.11Zm0-78.71v38.15L1596,98h0l-24.84-19.49,24.31-19.06Zm-49.68-40.51V.19L1595,19.3h0l24.84,19.49-24.39,19.11Zm-.49,1.15,24.35,19.11L1570.2,77.78l-24.84,19.49V59.06ZM1544.38,20V58.26l-12.81,10.05-12,9.43-24.35-19.11,24.35-19.11Zm-75,18.34V.19L1493.7,19.3h0l24.84,19.49-24.35,19.11Zm-.49,1.15,24.35,19.11-24.35,19.11L1444,97.25V59.06ZM1443.06,20V58.26l-12.81,10.05-12,9.43L1393.9,58.64l24.35-19.11Zm-75,18.34V.19l24.39,19.11h0l24.84,19.49-24.35,19.11Zm-.49,1.15,24.35,19.11-24.35,19.11-24.84,19.49V59.06ZM1341.75,20V58.26l-12.81,10.05-12,9.43-24.35-19.11,24.35-19.11Zm-75,18.34V.19l24.35,19.11h0l24.84,19.49-24.35,19.11Zm-.49,1.15,24.35,19.11-24.35,19.11-24.86,19.51V59.06ZM1216.07,78.9l5.33-4.19,19-14.91V137l-24.35-19.11Zm0,78.71V119.4l24.35,19.11h0L1265.26,158l-24.34,19.11Zm25.82,20.26,24.35-19.11,24.84-19.49v38.2L1266.24,197l-20.08-15.75Zm-.49,39.36h0l-24.84-19.49,24.35-19.11,24.85,19.47v38.21Zm0,40.12V218.78l24.35,19.11v39L1241.38,296ZM1266.24,278l24.35,19.11-24.35,19.11-24.86,19.51V297.5Zm-50.17,39.36,24.35-19.11v77.18l-24.35-19.11Zm0,78.71V357.85L1240.42,377h0l24.84,19.49-24.35,19.11Zm49.68,78.71-24.37-19.08-24.81-19.53,24.35-19.11,24.84,19.49Zm.49-39.36-24.35-19.11,24.35-19.11,24.84-19.49v38.2Zm25.82,19.49V416.69l24.84-19.49,13.68,10.73,10.66,8.36-24.35,19.11Zm75,19.88-24.35-19.11-24.85-19.5,24.35-19.11,24.84,19.49Zm.49-39.36-24.35-19.11,24.35-19.11,24.86-19.45V416Zm25.86,19.53V416.73l24.84-19.49L1432,408l10.66,8.36-24.35,19.11Zm75,19.88-24.35-19.11-24.9-19.54,24.35-19.11,24.84,19.49Zm.49-39.36-24.35-19.11,24.35-19.11,24.84-19.49V416Zm25.82,19.49V416.73l24.84-19.49L1533.28,408l10.66,8.36-24.35,19.11Zm75,19.88-24.35-19.11-24.92-19.54,24.35-19.11,24.84,19.49Zm.49-39.36-24.35-19.11,24.35-19.11,24.84-19.49V416Z"/>
      </g>
    </g>
  </g>
</svg>
