<?xml version="1.0" encoding="utf-8"?>
<!-- Generator: Adobe Illustrator 16.0.0, SVG Export Plug-In . SVG Version: 6.00 Build 0)  -->
<!DOCTYPE svg PUBLIC "-//W3C//DTD SVG 1.1//EN" "http://www.w3.org/Graphics/SVG/1.1/DTD/svg11.dtd">
<svg version="1.1" id="Layer_1" xmlns="http://www.w3.org/2000/svg" xmlns:xlink="http://www.w3.org/1999/xlink" x="0px" y="0px"
	 width="144px" height="30.544px" viewBox="12.25 -53.195 144 30.544" enable-background="new 12.25 -53.195 144 30.544"
	 xml:space="preserve">
<g>
	<path fill="#A56F13" d="M137.913-51.944c-0.198,0-0.398-0.229-0.697-0.229c-1.693,0-3.288,0-5.083,0c0,0.229,0,0.689,0.101,0.918
		c-0.101,0-0.199,0-0.299,0c-1.594,0.23-3.19,0.23-4.784,0.46c-0.995,0.23-1.992,0.46-2.891,0.688
		c-1.296,0.46-2.491,0.69-3.885,0.92c-1.295,0-2.591,0.229-3.887,0.229c-0.697,0-1.694,0-1.694,0.92
		c0,0.688,0.997,1.609,1.992,1.609c1.494,0,2.891-0.232,4.387-0.46c3.486-0.46,6.975-0.921,10.562-0.689
		c2.392,0.229,4.883-0.231,7.276-0.231c2.291,0,4.584,0.231,6.875,0.231c0.198,0,0.399,0,0.498,0
		c1.596,0.46,3.188,0.917,4.883,1.609c-0.696,1.607,1.197,1.607,2.392,2.297c-0.499,0.458-0.896,0.689-1.494,1.149
		c0.598,1.837,2.891,1.377,4.086,2.525c-0.398,0-0.797,0.23-1.097,0.23c-0.896,0.23-1.195,0.69-1.195,1.608
		c0.099,1.149-0.397,1.838-1.794,2.298c-2.293,0.689-4.584,1.149-7.075,1.379c-1.794,0-3.488,0.458-5.183,0.689
		c-1.595,0.23-3.188,0.46-4.883,0.689c-0.697,0-1.494,0-1.595,0.919c0,0.229-0.598,0.229-0.896,0.229c-0.995,0-1.992,0-2.989,0
		c-2.492-0.229-4.784,0.229-7.175,0.689c-2.392,0.459-4.884,0.688-7.275,1.149c-2.689,0.459-5.481,0.92-8.272,1.149
		c-1.194,0.231-2.39,0.231-3.487,0c-1.893,0-3.886-0.229-5.779-0.229c-0.498,0-0.896,0-1.395-0.231
		c-0.798-0.229-1.495-0.229-2.392,0c-0.699,0.231-1.594,0-2.394,0c-2.391,0-4.882,0.231-7.273,0.46
		c-2.391,0.231-4.882,0.688-7.276,0.92c-1.791,0.228-3.687,0.228-5.381,0.689c-1.295,0.228-2.492,0.919-3.786,1.377
		c-0.199,0-0.397,0.231-0.698,0.692c1.098,0.458,1.992,0.917,2.891,1.149v0.228c-0.496,0-0.995,0.229-1.494,0.229
		c-4.484,0.23-8.969,0.46-13.454,0.691c-6.677,0.457-13.354,0.457-20.03,0c-5.48-0.231-10.763-0.921-16.045-2.529
		c-0.796-0.229-1.394-0.688-1.892-1.377c-1.396-1.837-2.99-3.678-4.385-5.515c-0.2,0-0.299-0.46-0.299-1.148
		c0.199-1.838,0-3.676,0.897-5.285c0.199-0.46,0.399-0.919,0.199-1.149c-0.698-1.148-0.1-2.068-0.1-2.985
		c0-3.678,3.289-5.284,6.377-5.055c1.596,0,3.189,0.228,4.785,0.459c8.769,0.689,17.538,0.689,26.408,0
		c0.695,1.149,1.693,1.609,3.288,1.378c3.986-0.229,7.973-0.229,12.059-0.46c3.287-0.228,6.577-0.458,9.865-0.688
		c3.786-0.229,7.474-0.46,11.261-0.688c1.895-0.229,3.888-0.229,5.779-0.46c1.596-0.229,3.289-0.46,4.884-0.688
		c2.591-0.229,5.183-0.689,7.774-0.92c2.689-0.229,5.28-0.458,7.872-0.918c2.689-0.46,5.481-0.688,8.271-0.92
		c0.896,0,1.992,0,2.59-0.459c1.494-1.149,3.09-0.458,4.586-0.458c1.892,0,3.785,0,5.679,0
		C135.821-52.633,137.017-52.633,137.913-51.944L137.913-51.944z"/>
	<path fill="#A56F13" d="M78.421-24.374c0.198-0.228,0.398-0.459,0.597-0.459c0.797,0,1.495,0,2.592,0
		C80.314-24.601,79.416-24.374,78.421-24.374L78.421-24.374z"/>
	<path fill="#A56F13" d="M78.421-24.374c-1.194,0-2.393,0-3.688,0v-0.228C76.029-24.374,77.227-24.374,78.421-24.374L78.421-24.374z
		"/>
	<path fill="#A56F13" d="M85.594-24.833c-0.596,0-1.095,0-1.694,0l0,0C84.499-24.833,84.998-24.833,85.594-24.833L85.594-24.833z"/>
	<path fill="#A56F13" d="M137.913-51.944c0.897,0,1.694,0,2.592-0.229c0,0,0,0,0,0.229C139.608-51.944,138.71-51.944,137.913-51.944
		L137.913-51.944z"/>
	<path fill="#A56F13" d="M123.463-53.093c-0.297,0-0.696,0-0.995,0l0,0c0.398,0,0.698,0,1.097,0
		C123.565-53.322,123.463-53.093,123.463-53.093z"/>
</g>
</svg>
