<?xml version="1.0" encoding="utf-8"?>
<!-- Generator: Adobe Illustrator 16.0.0, SVG Export Plug-In . SVG Version: 6.00 Build 0)  -->
<!DOCTYPE svg PUBLIC "-//W3C//DTD SVG 1.1//EN" "http://www.w3.org/Graphics/SVG/1.1/DTD/svg11.dtd">
<svg version="1.1" id="Layer_1" xmlns="http://www.w3.org/2000/svg" xmlns:xlink="http://www.w3.org/1999/xlink" x="0px" y="0px"
	 width="28px" height="30px" viewBox="1612.5 1870.2 28 30" style="enable-background:new 1612.5 1870.2 28 30;"
	 xml:space="preserve">
<style type="text/css">
<![CDATA[
	.st0{fill:none;stroke:#1C1C22;stroke-width:1.1;stroke-linecap:round;stroke-linejoin:round;stroke-miterlimit:10;}
	.st1{fill:none;stroke:#1C1C22;stroke-width:1.1;stroke-miterlimit:10;}
]]>
</style>
<g>
	<g>
		<path class="st0" d="M1623.8,1872c-1-1-2.7-1-3.8,0c-1,1-1,2.7,0,3.8c0.2,0.2,0.5,0.4,0.8,0.5l5.7,2.2l-2.2-5.7
			C1624.2,1872.4,1624,1872.2,1623.8,1872z"/>
		<path class="st0" d="M1629.3,1872c1-1,2.7-1,3.8,0c1,1,1,2.7,0,3.8c-0.2,0.2-0.5,0.4-0.8,0.5l-5.7,2.2l2.2-5.7
			C1628.9,1872.4,1629.1,1872.2,1629.3,1872z"/>
	</g>
	<rect x="1613.3" y="1878.6" class="st1" width="26.5" height="4.7"/>
	<rect x="1615.5" y="1883.3" class="st1" width="22.1" height="16"/>
	<line class="st0" x1="1626.5" y1="1878.7" x2="1626.5" y2="1899"/>
</g>
</svg>
