<?xml version="1.0" encoding="utf-8"?>
<!-- Generator: Adobe Illustrator 24.0.1, SVG Export Plug-In . SVG Version: 6.00 Build 0)  -->
<svg version="1.1" id="Layer_1" xmlns="http://www.w3.org/2000/svg" xmlns:xlink="http://www.w3.org/1999/xlink" x="0px" y="0px"
	 width="74px" height="40px" viewBox="0 0 74 40" style="enable-background:new 0 0 74 40;" xml:space="preserve">
<style type="text/css">
	.st0{fill:#FFFFFF;}
</style>
<g>
	<g>
		<g>
			<polygon class="st0" points="30.4,31.6 37.7,35.1 30.4,38.5 			"/>
			<path class="st0" d="M30.4,39.4c-0.2,0-0.3,0-0.5-0.1c-0.3-0.2-0.4-0.5-0.4-0.8v-6.9c0-0.3,0.2-0.6,0.4-0.8
				c0.3-0.2,0.6-0.2,0.9-0.1l7.3,3.5c0.3,0.2,0.5,0.5,0.5,0.8s-0.2,0.7-0.5,0.8l-7.3,3.5C30.7,39.4,30.5,39.4,30.4,39.4z M31.3,33v4
				l4.2-2L31.3,33z"/>
		</g>
		<g>
			<path class="st0" d="M33.3,33.9c-3.5-0.1-7-0.4-10.4-0.9c-4.5-0.7-9-1.8-13-3.5c-1-0.4-2-0.9-2.9-1.5c-0.9-0.6-1.8-1.2-2.6-1.8
				c-0.8-0.7-1.4-1.4-1.9-2.3C2,23,1.8,22.1,1.8,21.2c0-0.9,0.4-1.9,0.9-2.7c0.5-0.9,1.3-1.6,2.1-2.3c1.6-1.4,3.6-2.5,5.7-3.5
				c-1.1,0.4-2.1,0.8-3.2,1.3c-1,0.5-2,1.1-2.9,1.8C3.5,16.4,2.7,17.1,2,18c-0.7,0.9-1.2,1.9-1.3,3.1c-0.2,1.1,0.1,2.3,0.5,3.3
				c0.5,1,1.2,2,2,2.8C4.9,28.8,6.9,30,9,31c2.1,1,4.3,1.8,6.6,2.4c2.3,0.6,4.6,1.2,6.9,1.6c3.6,0.6,7.2,0.9,10.8,1.1V33.9z"/>
			<path class="st0" d="M33.3,36.2C33.3,36.2,33.3,36.2,33.3,36.2c-3.8-0.1-7.5-0.5-10.9-1.1c-2.4-0.4-4.8-0.9-6.9-1.6
				c-2.3-0.7-4.6-1.5-6.6-2.4c-2.6-1.2-4.4-2.5-5.9-3.9c-0.9-0.9-1.6-1.9-2.1-2.8c-0.5-1.1-0.7-2.3-0.6-3.4c0.1-1,0.6-2.1,1.4-3.1
				c0.6-0.9,1.5-1.7,2.5-2.4c0.9-0.6,1.9-1.2,3-1.8c1-0.5,2-0.9,3.2-1.3c0.1,0,0.2,0,0.3,0.1c0,0.1,0,0.2-0.1,0.3
				c-2.4,1.2-4.2,2.3-5.6,3.5c-0.9,0.8-1.6,1.5-2,2.3c-0.6,0.9-0.9,1.8-0.9,2.6c0,0.9,0.2,1.8,0.6,2.6c0.4,0.8,1,1.5,1.9,2.2
				c0.7,0.6,1.6,1.2,2.5,1.8c0.8,0.5,1.7,0.9,2.9,1.5c3.7,1.6,8,2.7,13,3.5c3.4,0.5,6.8,0.8,10.4,0.9c0.1,0,0.2,0.1,0.2,0.2V36
				c0,0.1,0,0.1-0.1,0.1C33.4,36.2,33.4,36.2,33.3,36.2z M6.8,14.5c-0.8,0.4-1.5,0.9-2.2,1.4c-1,0.7-1.8,1.5-2.4,2.3
				c-0.7,1-1.2,2-1.3,3c-0.1,1,0,2.2,0.5,3.2c0.4,0.9,1.1,1.8,2,2.7c1.4,1.4,3.2,2.6,5.7,3.8c2,1,4.3,1.8,6.6,2.4
				c2.1,0.6,4.5,1.1,6.9,1.6c3.3,0.6,6.9,0.9,10.6,1.1v-1.7c-3.5-0.1-6.9-0.4-10.2-0.9c-5-0.8-9.3-1.9-13.1-3.5
				c-1.2-0.5-2.1-1-3-1.5c-1-0.6-1.9-1.2-2.6-1.9c-0.9-0.8-1.5-1.5-1.9-2.4c-0.5-0.9-0.7-1.9-0.6-2.8c0-0.9,0.4-1.8,1-2.8
				c0.5-0.8,1.2-1.6,2.1-2.4C5.3,15.5,6,15,6.8,14.5z"/>
		</g>
		<g>
			<path class="st0" d="M73.3,21.1C73.2,20,72.7,18.9,72,18c-0.7-0.9-1.5-1.7-2.4-2.3c-0.9-0.7-1.9-1.2-2.9-1.8
				c-1-0.5-2.1-0.9-3.2-1.3c2,1,4,2.1,5.6,3.5c0.8,0.7,1.5,1.5,2.1,2.3c0.5,0.9,0.9,1.8,0.9,2.7c0.1,0.9-0.2,1.9-0.6,2.7
				c-0.5,0.8-1.1,1.6-1.9,2.3c-0.8,0.7-1.7,1.3-2.6,1.8c-0.9,0.5-1.9,1-2.9,1.5c-4.1,1.7-8.5,2.8-13,3.5c-2.1,0.3-4.1,0.5-6.2,0.7
				v2.2c2.2-0.1,4.4-0.5,6.6-0.9c2.3-0.4,4.6-0.9,6.9-1.6c1.1-0.3,2.3-0.7,3.4-1.1c1.1-0.4,2.2-0.9,3.2-1.4c2.1-1,4.1-2.2,5.8-3.8
				c0.8-0.8,1.5-1.7,2-2.8C73.3,23.4,73.5,22.2,73.3,21.1z"/>
			<path class="st0" d="M44.9,36.1c-0.1,0-0.1,0-0.1-0.1c0,0-0.1-0.1-0.1-0.1v-2.2c0-0.1,0.1-0.2,0.2-0.2c2-0.2,4.1-0.4,6.2-0.7
				c5-0.8,9.3-1.9,13-3.5c1.2-0.5,2.1-1,2.9-1.5c1-0.6,1.8-1.2,2.5-1.8c0.8-0.7,1.4-1.5,1.9-2.2c0.4-0.8,0.7-1.7,0.6-2.6
				c0-0.8-0.3-1.7-0.9-2.6c-0.5-0.8-1.2-1.5-2-2.3c-1.4-1.2-3.2-2.3-5.6-3.5c-0.1,0-0.1-0.2-0.1-0.3c0-0.1,0.2-0.1,0.3-0.1
				c1.2,0.4,2.2,0.9,3.2,1.3c1.1,0.5,2.1,1.1,3,1.8c1,0.7,1.8,1.5,2.5,2.4c0.8,1,1.2,2.1,1.4,3.1c0.2,1.1,0,2.3-0.6,3.4
				c-0.4,1-1.1,1.9-2.1,2.8c-1.4,1.4-3.3,2.6-5.9,3.9c-1,0.5-2.1,0.9-3.3,1.4c-1.1,0.4-2.3,0.8-3.4,1.1c-2.2,0.6-4.5,1.1-6.9,1.6
				l-0.7,0.1C48.9,35.6,46.9,36,44.9,36.1C44.9,36.1,44.9,36.1,44.9,36.1z M45.1,33.9v1.8c1.9-0.1,3.8-0.4,5.7-0.7l0.7-0.1
				c2.4-0.4,4.7-0.9,6.9-1.6c1.1-0.3,2.2-0.7,3.3-1.1c1.2-0.4,2.2-0.9,3.2-1.3c2.5-1.2,4.3-2.4,5.8-3.8c0.9-0.9,1.6-1.8,2-2.7
				c0.5-1,0.7-2.1,0.5-3.2c0,0,0,0,0,0c-0.1-1-0.6-2-1.3-3c-0.6-0.8-1.4-1.6-2.4-2.3c-0.7-0.5-1.4-1-2.2-1.4c0.8,0.5,1.4,1,2,1.5
				c0.9,0.8,1.6,1.6,2.1,2.4c0.6,1,0.9,1.9,1,2.8c0.1,1-0.2,1.9-0.7,2.8c-0.4,0.8-1.1,1.6-1.9,2.4c-0.7,0.7-1.6,1.3-2.6,1.9
				c-0.8,0.5-1.8,1-3,1.5c-3.8,1.6-8.1,2.7-13.1,3.5C49.1,33.5,47,33.7,45.1,33.9z"/>
		</g>
	</g>
	<g>
		<path class="st0" d="M23.8,22.9c-2.9,0-5.3-1.5-5.4-4.9h1.9c0.2,2.3,1.8,3.2,3.6,3.2c2,0,3.6-1.3,3.6-3.6c0-2.2-1.1-3.6-3.6-3.6
			h-0.4v-1.6h0.4c2.3,0,3.3-1.3,3.3-3.4c0-2.2-1.4-3.4-3.2-3.4c-2,0-3.1,1.2-3.3,3.1h-1.9c0.2-3,2.4-4.8,5.2-4.8c3,0,5.1,2,5.1,5
			c0,1.9-0.8,3.4-2.5,4.1c1.9,0.7,2.8,2.2,2.8,4.5C29.2,21.1,26.8,22.9,23.8,22.9z"/>
		<path class="st0" d="M37.6,22.9c-3.1,0-5.1-2.1-5.1-5.3c0-1.3,0.4-2.6,1.2-4.2l4.5-9.2h1.9L36,12.6c0.6-0.3,1.2-0.4,2-0.4
			c2.9,0,4.8,2.2,4.8,5.3C42.8,20.6,40.8,22.9,37.6,22.9z M37.6,13.8c-2,0-3.3,1.5-3.3,3.7c0,2.3,1.3,3.7,3.3,3.7
			c2,0,3.3-1.5,3.3-3.7C40.9,15.4,39.8,13.8,37.6,13.8z"/>
		<path class="st0" d="M51.2,22.9c-2.9,0-5.1-2-5.1-5.1V9.2c0-3.1,2.2-5.1,5.1-5.1s5.1,2,5.1,5.1v8.6C56.2,20.9,54.1,22.9,51.2,22.9
			z M54.4,9.3c0-2-1.1-3.5-3.2-3.5S48,7.3,48,9.3v8.4c0,2,1.1,3.5,3.2,3.5s3.2-1.5,3.2-3.5V9.3z"/>
	</g>
	<g>
		<path class="st0" d="M62.6,6.3c-1.6,0-2.9-1.3-2.9-2.9s1.3-2.9,2.9-2.9s2.9,1.3,2.9,2.9S64.2,6.3,62.6,6.3z M62.6,1.5
			c-1.1,0-1.9,0.9-1.9,1.9s0.9,1.9,1.9,1.9s1.9-0.9,1.9-1.9S63.6,1.5,62.6,1.5z"/>
	</g>
</g>
</svg>
