<?xml version="1.0" encoding="utf-8"?>
<!-- Generator: Adobe Illustrator 16.0.0, SVG Export Plug-In . SVG Version: 6.00 Build 0)  -->
<!DOCTYPE svg PUBLIC "-//W3C//DTD SVG 1.1//EN" "http://www.w3.org/Graphics/SVG/1.1/DTD/svg11.dtd">
<svg version="1.1" id="Layer_1" xmlns="http://www.w3.org/2000/svg" xmlns:xlink="http://www.w3.org/1999/xlink" x="0px" y="0px"
	 width="112px" height="44px" viewBox="0 0 112 44" style="enable-background:new 0 0 112 44;" xml:space="preserve">
<style type="text/css">
<![CDATA[
	.st0{fill:#1C1C22;}
]]>
</style>
<g>
	<g>
		<path class="st0" d="M32.6,12.1c1.8,0.7,6,10,6,10h1.6c0,0-4.1-8.8-6.1-10.2c3.8-0.8,5-2.7,5-5.4c0-4.5-4.2-5.5-8.9-5.4L26.1,1
			l0.1,21h1.5v-9.9h2.4C31.1,12.2,31.9,12.1,32.6,12.1z M27.7,11.5V1.6l2.7-0.1c4.5-0.1,7.1,1.3,7.1,4.8c0,4.3-4,5.2-7.4,5.2H27.7z
			 M0.3,22h1.2l2.5-6.7h9.1l2.5,6.7h1.6L8.8,0L0.3,22z M4.5,14.2L8.6,3.3l4.1,10.8H4.5z M55.9,22V1.8h7.5V1H46.9v0.8h7.5V22H55.9z
			 M86.7,11.8c0,3.3-0.2,4.6-0.7,5.7c-1,2.3-3,3.7-6.3,3.7c-3.1,0-5.2-1.3-6.2-3.8c-0.4-1-0.6-2.2-0.6-6V1h-1.5v10.3
			c0,3.9,0.2,5.2,0.6,6.3c1.1,3.2,3.7,4.8,7.6,4.8c3.7,0,6.3-1.7,7.5-4.5c0.5-1.2,0.8-2.6,0.8-6.1V1h-1.2V11.8z M105.2,10.3L104,9.8
			c-2.4-0.9-4.2-2-4.2-4.5c0-3,2.5-4,4.8-4c2.3,0,4.5,0.9,6,3.3V2.1c-1.6-0.9-3.6-1.5-6-1.5c-3.6,0-6.2,1.8-6.2,5.2
			c0,2.3,1.6,4.2,5.3,5.5l1.4,0.5c3.4,1.3,5.2,2.6,5.2,5.5c0,2.6-2.2,4.5-5.6,4.5c-2.6,0-4.9-0.8-6.8-3.5v2.5
			c1.9,1.1,4.1,1.7,6.7,1.7c4.5,0,7.1-2.5,7.1-5.8C111.7,12.7,108.1,11.4,105.2,10.3z M29.6,38.1h12.7v-0.4H29.6V38.1z M58.6,34.2
			c-0.3,0-0.6,0.3-0.6,0.6c0,0.3,0.3,0.6,0.6,0.6c0.3,0,0.6-0.3,0.6-0.6C59.2,34.4,58.9,34.2,58.6,34.2z M57.4,33.8
			c-0.3,0-0.6,0.3-0.6,0.6c0,0.3,0.3,0.6,0.6,0.6c0.3,0,0.6-0.3,0.6-0.6C58,34.1,57.7,33.8,57.4,33.8z M56.8,35.6
			c0-0.3-0.3-0.6-0.6-0.6c-0.3,0-0.6,0.3-0.6,0.6c0,0.3,0.3,0.6,0.6,0.6C56.5,36.1,56.8,35.9,56.8,35.6z M58.6,35.7
			c-0.3,0-0.6,0.3-0.6,0.6c0,0.3,0.3,0.6,0.6,0.6c0.3,0,0.6-0.3,0.6-0.6C59.2,36,58.9,35.7,58.6,35.7z M58.6,37.3
			c-0.3,0-0.6,0.3-0.6,0.6c0,0.3,0.3,0.6,0.6,0.6c0.3,0,0.6-0.3,0.6-0.6C59.2,37.6,58.9,37.3,58.6,37.3z M58.6,38.9
			c-0.3,0-0.6,0.3-0.6,0.6s0.3,0.6,0.6,0.6c0.3,0,0.6-0.3,0.6-0.6S58.9,38.9,58.6,38.9z M58.6,40.4c-0.3,0-0.6,0.3-0.6,0.6
			c0,0.3,0.3,0.6,0.6,0.6c0.3,0,0.6-0.3,0.6-0.6C59.2,40.7,58.9,40.4,58.6,40.4z M58.6,32.6c-0.3,0-0.6,0.3-0.6,0.6s0.3,0.6,0.6,0.6
			c0.3,0,0.6-0.3,0.6-0.6S58.9,32.6,58.6,32.6z M58.6,42c-0.3,0-0.6,0.3-0.6,0.6c0,0.3,0.3,0.6,0.6,0.6c0.3,0,0.6-0.3,0.6-0.6
			C59.2,42.2,58.9,42,58.6,42z M60.2,42c-0.3,0-0.6,0.3-0.6,0.6c0,0.3,0.3,0.6,0.6,0.6s0.6-0.3,0.6-0.6C60.7,42.2,60.5,42,60.2,42z
			 M57,42c-0.3,0-0.6,0.3-0.6,0.6c0,0.3,0.3,0.6,0.6,0.6c0.3,0,0.6-0.3,0.6-0.6C57.6,42.2,57.3,42,57,42z M65.2,34.2
			c-0.3,0-0.6,0.3-0.6,0.6c0,0.3,0.3,0.6,0.6,0.6c0.3,0,0.6-0.3,0.6-0.6C65.8,34.4,65.5,34.2,65.2,34.2z M64,33.8
			c-0.3,0-0.6,0.3-0.6,0.6c0,0.3,0.3,0.6,0.6,0.6c0.3,0,0.6-0.3,0.6-0.6C64.5,34.1,64.3,33.8,64,33.8z M63.4,35.6
			c0-0.3-0.3-0.6-0.6-0.6s-0.6,0.3-0.6,0.6c0,0.3,0.3,0.6,0.6,0.6S63.4,35.9,63.4,35.6z M65.2,35.7c-0.3,0-0.6,0.3-0.6,0.6
			c0,0.3,0.3,0.6,0.6,0.6c0.3,0,0.6-0.3,0.6-0.6C65.8,36,65.5,35.7,65.2,35.7z M65.2,37.3c-0.3,0-0.6,0.3-0.6,0.6
			c0,0.3,0.3,0.6,0.6,0.6c0.3,0,0.6-0.3,0.6-0.6C65.8,37.6,65.5,37.3,65.2,37.3z M65.2,38.9c-0.3,0-0.6,0.3-0.6,0.6s0.3,0.6,0.6,0.6
			c0.3,0,0.6-0.3,0.6-0.6S65.5,38.9,65.2,38.9z M65.2,40.4c-0.3,0-0.6,0.3-0.6,0.6c0,0.3,0.3,0.6,0.6,0.6c0.3,0,0.6-0.3,0.6-0.6
			C65.8,40.7,65.5,40.4,65.2,40.4z M65.2,32.6c-0.3,0-0.6,0.3-0.6,0.6s0.3,0.6,0.6,0.6c0.3,0,0.6-0.3,0.6-0.6S65.5,32.6,65.2,32.6z
			 M65.2,42c-0.3,0-0.6,0.3-0.6,0.6c0,0.3,0.3,0.6,0.6,0.6c0.3,0,0.6-0.3,0.6-0.6C65.8,42.2,65.5,42,65.2,42z M66.7,42
			c-0.3,0-0.6,0.3-0.6,0.6c0,0.3,0.3,0.6,0.6,0.6c0.3,0,0.6-0.3,0.6-0.6C67.3,42.2,67.1,42,66.7,42z M63.6,42
			c-0.3,0-0.6,0.3-0.6,0.6c0,0.3,0.3,0.6,0.6,0.6s0.6-0.3,0.6-0.6C64.2,42.2,63.9,42,63.6,42z M53.5,42c-0.3,0-0.6,0.3-0.6,0.6
			c0,0.3,0.3,0.6,0.6,0.6c0.3,0,0.6-0.3,0.6-0.6C54,42.2,53.8,42,53.5,42z M47.3,34.2c-0.3,0-0.6,0.3-0.6,0.6c0,0.3,0.3,0.6,0.6,0.6
			c0.3,0,0.6-0.3,0.6-0.6C47.9,34.4,47.6,34.2,47.3,34.2z M47.3,35.7c-0.3,0-0.6,0.3-0.6,0.6c0,0.3,0.3,0.6,0.6,0.6
			c0.3,0,0.6-0.3,0.6-0.6C47.9,36,47.6,35.7,47.3,35.7z M47.3,37.3c-0.3,0-0.6,0.3-0.6,0.6c0,0.3,0.3,0.6,0.6,0.6
			c0.3,0,0.6-0.3,0.6-0.6C47.9,37.6,47.6,37.3,47.3,37.3z M47.3,38.9c-0.3,0-0.6,0.3-0.6,0.6S47,40,47.3,40c0.3,0,0.6-0.3,0.6-0.6
			S47.6,38.9,47.3,38.9z M47.3,40.4c-0.3,0-0.6,0.3-0.6,0.6c0,0.3,0.3,0.6,0.6,0.6c0.3,0,0.6-0.3,0.6-0.6
			C47.9,40.7,47.6,40.4,47.3,40.4z M47.3,32.6c-0.3,0-0.6,0.3-0.6,0.6s0.3,0.6,0.6,0.6c0.3,0,0.6-0.3,0.6-0.6S47.6,32.6,47.3,32.6z
			 M47.3,42c-0.3,0-0.6,0.3-0.6,0.6c0,0.3,0.3,0.6,0.6,0.6c0.3,0,0.6-0.3,0.6-0.6C47.9,42.2,47.6,42,47.3,42z M48.9,37.3
			c-0.3,0-0.6,0.3-0.6,0.6c0,0.3,0.3,0.6,0.6,0.6c0.3,0,0.6-0.3,0.6-0.6C49.4,37.6,49.2,37.3,48.9,37.3z M50,36.1
			c-0.3,0-0.6,0.3-0.6,0.6c0,0.3,0.3,0.6,0.6,0.6c0.3,0,0.6-0.3,0.6-0.6C50.6,36.4,50.3,36.1,50,36.1z M50,38.5
			c-0.3,0-0.6,0.3-0.6,0.6c0,0.3,0.3,0.6,0.6,0.6c0.3,0,0.6-0.3,0.6-0.6C50.6,38.8,50.3,38.5,50,38.5z M51.2,35
			c-0.3,0-0.6,0.3-0.6,0.6c0,0.3,0.3,0.6,0.6,0.6s0.6-0.3,0.6-0.6C51.7,35.2,51.5,35,51.2,35z M52.3,33.8c-0.3,0-0.6,0.3-0.6,0.6
			s0.3,0.6,0.6,0.6c0.3,0,0.6-0.3,0.6-0.6S52.6,33.8,52.3,33.8z M51.2,39.7c-0.3,0-0.6,0.3-0.6,0.6c0,0.3,0.3,0.6,0.6,0.6
			s0.6-0.3,0.6-0.6C51.7,39.9,51.5,39.7,51.2,39.7z M52.3,40.8c-0.3,0-0.6,0.3-0.6,0.6S52,42,52.3,42c0.3,0,0.6-0.3,0.6-0.6
			S52.6,40.8,52.3,40.8z M53.5,32.6c-0.3,0-0.6,0.3-0.6,0.6s0.3,0.6,0.6,0.6c0.3,0,0.6-0.3,0.6-0.6S53.8,32.6,53.5,32.6z M71.8,38.1
			h12.7v-0.4H71.8V38.1z"/>
	</g>
</g>
</svg>
