<?xml version="1.0" encoding="utf-8"?>
<!-- Generator: Adobe Illustrator 24.0.1, SVG Export Plug-In . SVG Version: 6.00 Build 0)  -->
<svg version="1.1" id="Layer_1" xmlns="http://www.w3.org/2000/svg" xmlns:xlink="http://www.w3.org/1999/xlink" x="0px" y="0px"
	 width="70px" height="50px" viewBox="0 0 70 50" style="enable-background:new 0 0 70 50;" xml:space="preserve">
<style type="text/css">
	.st0{opacity:0.3;}
	.st1{fill:#B18A47;}
</style>
<g>
	<path class="st1" d="M37.1,43.4c2.2-2,5.3-5.1,9.2-9.5c-2.2,1.8-4,3.1-5.5,3.7c2.4-1.6,4.7-4.6,6.2-6.7c0.5-0.7,2.3-3.4,2.3-3.4
		S48,26.9,47,26.5c-2.2-0.8-5-2.5-6.4-4.4c-1.5-2-1.6-5-1.6-7.3C39,8.4,42.9,2.8,49.1,1c3.9-1.2,7.7-1.1,11.7,0.1
		c1.4,0.4,3.3,2.3,4.3,3.4c1.3,1.4,2,3,2.7,4.7c2.2,5.4,1.9,11.5-0.3,16.9C65.9,30,64,33.6,61.7,37c-4.4,6.5-9.2,10.8-14.5,12.8
		c0.7-1,1.7-2,2.9-3.1c-1.5,1-3.2,2-5.3,3.1c1.6-1.5,3.2-3.4,5-5.9l-3.1,1.5l0.9-0.6l1.7-1.7c-1.6,1-2.9,1.5-3.9,1.7
		c2-0.8,3-1.8,3.7-2.8l-3.1,1.7l0.1-0.2l1.4-0.7c0.4-0.2,0.4-0.6,0-0.9l0.5-0.3c0,0,1-0.3,1.1-0.8c0.5-0.9,1.2-1.8,2.2-2.8l-0.4-0.9
		c-2.1,1.6-5,3.4-8.6,5.3c2.4-2.7,4.2-4.9,5.1-6.6C45.8,37.2,42.4,39.7,37.1,43.4z M1,13.3c0.2-0.9,0.6-1.8,1.1-2.7
		c1.1-2.3,2.5-4.4,4.6-6c2.1-1.6,5.4-3.5,8.1-3.8c4.7-0.5,10,0,13.8,4.5c4.9,5.7,3.8,14.2,2.4,21.3C30,31,27.8,35,24.8,38.2
		c-4.4,4.7-9.8,7.2-16.3,7.4l7.3-3.9c-1.8,0.7-4.6,1.6-8.3,2.6l0.7-2c2-0.6,4-1.5,6.1-2.6c-0.9,0-2.1,0.1-3.8,0.2
		C9,40,7.7,40.1,6.9,40.1c0.9-0.4,1.8-0.7,2.8-1.1c0.2-0.2,0.4-0.6,0.6-0.9c-0.6,0.1-1.6,0.4-2.9,0.7c3.4-1.3,5.3-2.6,5.7-3.9
		c-2.7,1.5-5.3,2.3-7.7,2.6c1.5-0.7,2.5-1.5,3.1-2.4L7.2,35l2.4-1.7c-1.2,0.5-3.5,0.9-7,1.3c2.2-1,4.3-2.2,6.2-3.7
		c-1.5,0.6-2.8,0.9-3.9,0.7c0,0-1.3,0-1.3,0c3.2,0,6.6-2.1,8.4-4.6c-3.1-1-5.9-1.6-8.3-4.2c-2.1-2.3-3.4-5.8-3-9
		C0.9,13.7,0.9,13.5,1,13.3z"/>
</g>
</svg>
